<svg width="137" height="93" viewBox="0 0 137 93" fill="none" xmlns="http://www.w3.org/2000/svg">
<path d="M65.2702 92.6135C101.318 92.6135 130.54 90.4616 130.54 87.8071C130.54 85.1525 101.318 83.0006 65.2702 83.0006C29.2224 83.0006 0 85.1525 0 87.8071C0 90.4616 29.2224 92.6135 65.2702 92.6135Z" fill="#1BA098"/>
<path d="M108.421 23.0328C109.382 23.0168 110.337 23.1897 111.231 23.5418C112.125 23.8938 112.94 24.4181 113.631 25.0846C114.321 25.7511 114.873 26.5468 115.255 27.4261C115.637 28.3054 115.841 29.2511 115.856 30.209V80.2876C115.827 81.9488 115.139 83.5311 113.942 84.6877C112.746 85.8444 111.138 86.4813 109.471 86.4589H38.69C37.0232 86.4813 35.4155 85.8444 34.2188 84.6877C33.0221 83.5311 32.3341 81.9488 32.3054 80.2876V21.6303C32.3341 19.969 33.0221 18.3868 34.2188 17.2301C35.4155 16.0734 37.0232 15.4365 38.69 15.4589H65.9926C70.3233 15.4589 73.8306 18.8544 73.8306 23.037H108.421V23.0328Z" fill="#1BA098"/>
<path d="M109.458 86.6683H38.69C36.9672 86.6918 35.3054 86.0332 34.0691 84.837C32.8328 83.6408 32.123 82.0047 32.0953 80.2876V21.6303C32.123 19.9131 32.8328 18.277 34.0691 17.0808C35.3054 15.8846 36.9672 15.2261 38.69 15.2496H65.9926C70.3569 15.2496 73.923 18.6325 74.0364 22.8319H108.421C112.621 22.8319 116.049 26.1437 116.049 30.2132V80.2876C116.021 82.004 115.312 83.6395 114.077 84.8355C112.841 86.0316 111.181 86.6906 109.458 86.6683ZM38.69 15.6641C37.0779 15.6406 35.5223 16.2556 34.3646 17.3742C33.207 18.4927 32.5419 20.0234 32.5154 21.6303V80.2876C32.543 81.8937 33.2086 83.4233 34.3661 84.541C35.5236 85.6586 37.0786 86.2731 38.69 86.2496H109.458C111.07 86.2731 112.625 85.6586 113.782 84.541C114.94 83.4233 115.605 81.8937 115.633 80.2876V30.2091C115.633 26.3698 112.399 23.2422 108.421 23.2422H73.8516C73.7959 23.2422 73.7425 23.2201 73.7031 23.1809C73.6637 23.1416 73.6416 23.0884 73.6416 23.0329C73.6416 18.9716 70.2182 15.6641 66.0136 15.6641H38.69Z" fill="#1BA098"/>
<path d="M43.8187 78.2444V0.264954H95.9752L108.165 12.4193V76.8921L43.8187 78.2444Z" fill="#051622"/>
<path d="M101.709 16.4512H49.1616C49.1342 16.4512 49.1071 16.4457 49.0818 16.4352C49.0566 16.4246 49.0337 16.4091 49.0145 16.3896C48.9954 16.3701 48.9803 16.347 48.9702 16.3216C48.9601 16.2963 48.9552 16.2691 48.9558 16.2418C48.9558 16.187 48.9773 16.1344 49.0158 16.0953C49.0543 16.0561 49.1066 16.0336 49.1616 16.0325H101.709C101.764 16.0336 101.816 16.0561 101.855 16.0953C101.893 16.1344 101.915 16.187 101.915 16.2418C101.915 16.2691 101.91 16.2963 101.9 16.3216C101.89 16.347 101.875 16.3701 101.856 16.3896C101.837 16.4091 101.814 16.4246 101.788 16.4352C101.763 16.4457 101.736 16.4512 101.709 16.4512Z" fill="white"/>
<path d="M101.709 24.8164H49.1616C49.1059 24.8164 49.0525 24.7944 49.0131 24.7551C48.9737 24.7159 48.9516 24.6626 48.9516 24.6071C48.9516 24.5516 48.9737 24.4983 49.0131 24.4591C49.0525 24.4198 49.1059 24.3978 49.1616 24.3978H101.709C101.764 24.3978 101.818 24.4198 101.857 24.4591C101.897 24.4983 101.919 24.5516 101.919 24.6071C101.919 24.6626 101.897 24.7159 101.857 24.7551C101.818 24.7944 101.764 24.8164 101.709 24.8164Z" fill="white"/>
<path d="M101.709 33.1817H49.1616C49.1066 33.1806 49.0543 33.1581 49.0158 33.1189C48.9773 33.0798 48.9558 33.0272 48.9558 32.9724C48.9552 32.9451 48.9601 32.918 48.9702 32.8926C48.9803 32.8672 48.9954 32.8441 49.0145 32.8246C49.0337 32.8051 49.0566 32.7896 49.0818 32.779C49.1071 32.7685 49.1342 32.763 49.1616 32.763H101.709C101.736 32.763 101.763 32.7685 101.788 32.779C101.814 32.7896 101.837 32.8051 101.856 32.8246C101.875 32.8441 101.89 32.8672 101.9 32.8926C101.91 32.918 101.915 32.9451 101.915 32.9724C101.915 33.0272 101.893 33.0798 101.855 33.1189C101.816 33.1581 101.764 33.1806 101.709 33.1817Z" fill="white"/>
<path d="M101.709 41.5428H49.1616C49.1059 41.5428 49.0525 41.5207 49.0131 41.4815C48.9737 41.4422 48.9516 41.3889 48.9516 41.3334C48.9516 41.2779 48.9737 41.2247 49.0131 41.1854C49.0525 41.1461 49.1059 41.1241 49.1616 41.1241H101.709C101.764 41.1241 101.818 41.1461 101.857 41.1854C101.897 41.2247 101.919 41.2779 101.919 41.3334C101.919 41.3889 101.897 41.4422 101.857 41.4815C101.818 41.5207 101.764 41.5428 101.709 41.5428Z" fill="white"/>
<path d="M56.2393 6.39863H49.3128C49.2571 6.39863 49.2037 6.37658 49.1643 6.33732C49.1249 6.29806 49.1028 6.24481 49.1028 6.18929C49.1039 6.13411 49.1263 6.08148 49.1655 6.04245C49.2046 6.00342 49.2574 5.98102 49.3128 5.97995H56.2393C56.2943 5.98105 56.3466 6.00358 56.3851 6.04273C56.4236 6.08187 56.4451 6.13449 56.4451 6.18929C56.4457 6.21658 56.4407 6.24371 56.4306 6.26909C56.4206 6.29446 56.4055 6.31758 56.3863 6.33707C56.3671 6.35657 56.3443 6.37205 56.319 6.38262C56.2938 6.3932 56.2667 6.39864 56.2393 6.39863Z" fill="white"/>
<path d="M82.9546 25.3838L26.4999 19.9852L22.5772 60.741L79.032 66.1395L82.9546 25.3838Z" fill="white"/>
<path d="M79.0391 66.358L22.5604 60.9612C22.5031 60.9549 22.4507 60.9263 22.4145 60.8816C22.3783 60.8369 22.3613 60.7797 22.3672 60.7226L26.2862 19.9556C26.2915 19.8985 26.3192 19.8458 26.3632 19.809C26.4072 19.7722 26.4641 19.7541 26.5214 19.7588L82.9791 25.1556C83.0075 25.1576 83.0351 25.1654 83.0604 25.1785C83.0857 25.1915 83.1081 25.2096 83.1261 25.2315C83.1442 25.2534 83.1576 25.2788 83.1656 25.306C83.1735 25.3333 83.1758 25.3619 83.1723 25.39L79.2533 66.1487C79.251 66.1773 79.2428 66.2052 79.229 66.2304C79.2153 66.2556 79.1964 66.2777 79.1735 66.2952C79.1372 66.3309 79.0898 66.353 79.0391 66.358ZM22.8166 60.5677L78.8417 65.9226L82.7228 25.591L26.6978 20.2235L22.8166 60.5677Z" fill="#1BA098"/>
<path d="M74.6203 62.4727H74.5993L27.6471 57.9844C27.6189 57.9818 27.5915 57.9736 27.5665 57.9604C27.5415 57.9472 27.5194 57.9291 27.5014 57.9073C27.4835 57.8855 27.47 57.8604 27.4619 57.8334C27.4537 57.8064 27.451 57.778 27.4539 57.7499L30.7134 23.8367C30.7157 23.8081 30.7239 23.7803 30.7377 23.755C30.7514 23.7298 30.7704 23.7077 30.7932 23.6902C30.8144 23.6719 30.8391 23.658 30.8658 23.6494C30.8925 23.6408 30.9207 23.6375 30.9486 23.6399L77.9092 28.1282C77.9374 28.1308 77.9648 28.139 77.9898 28.1522C78.0148 28.1654 78.0369 28.1835 78.0549 28.2053C78.0728 28.2271 78.0863 28.2522 78.0944 28.2792C78.1026 28.3062 78.1053 28.3346 78.1024 28.3627L74.8429 62.2759C74.8409 62.3046 74.8327 62.3325 74.819 62.3578C74.8052 62.3831 74.7861 62.4051 74.7631 62.4224C74.7236 62.4566 74.6726 62.4746 74.6203 62.4727ZM27.8991 57.5741L74.4229 62.0205L77.632 28.5511L31.1166 24.1047L27.8991 57.5741Z" fill="#1BA098"/>
<path d="M64.4427 49.167C64.4115 49.1673 64.3806 49.1607 64.3522 49.1477C64.3239 49.1347 64.2988 49.1155 64.2789 49.0916C64.1108 48.9032 47.7124 30.1881 45.65 28.7227C44.8562 28.1533 39.9375 30.0834 29.6507 37.7202C29.6042 37.7488 29.5487 37.7591 29.4951 37.7489C29.4414 37.7388 29.3935 37.7089 29.3608 37.6653C29.3281 37.6217 29.313 37.5675 29.3185 37.5133C29.3239 37.4591 29.3495 37.409 29.3903 37.3727C29.4281 37.3476 32.9774 34.7141 36.741 32.3025C44.4655 27.3453 45.5618 28.1156 45.9021 28.371C48.0023 29.8657 63.926 48.0491 64.6023 48.8069C64.6426 48.8476 64.6651 48.9025 64.6651 48.9597C64.6651 49.0169 64.6426 49.0718 64.6023 49.1125C64.5579 49.1501 64.5009 49.1695 64.4427 49.167Z" fill="#1BA098"/>
<path d="M76.334 46.0143C76.2962 46.0143 76.259 46.0047 76.2259 45.9864C76.1928 45.968 76.165 45.9416 76.145 45.9096C72.7217 40.2909 68.7649 34.4168 68.0676 34.3121C67.362 34.4126 61.5822 39.0307 58.1085 41.9154C58.0635 41.9471 58.0081 41.9607 57.9535 41.9534C57.8988 41.9461 57.849 41.9185 57.8139 41.8762C57.7788 41.8338 57.7611 41.7797 57.7643 41.7249C57.7676 41.6701 57.7915 41.6185 57.8312 41.5804C58.7595 40.8101 66.9377 34.0442 68.0214 33.8809C68.3785 33.8223 69.9284 34.8815 76.5189 45.6877C76.5481 45.7372 76.5566 45.7962 76.5425 45.8519C76.5283 45.9075 76.4926 45.9554 76.4432 45.985C76.4104 46.0049 76.3725 46.0151 76.334 46.0143Z" fill="#1BA098"/>
<path d="M59.2468 34.0107C58.891 34.0107 58.5433 33.9055 58.2475 33.7084C57.9518 33.5113 57.7214 33.2312 57.5854 32.9035C57.4495 32.5758 57.4142 32.2153 57.4839 31.8676C57.5536 31.5199 57.7252 31.2006 57.977 30.9501C58.2289 30.6997 58.5496 30.5294 58.8986 30.4607C59.2476 30.392 59.6092 30.4281 59.9377 30.5644C60.2661 30.7007 60.5466 30.931 60.7436 31.2262C60.9407 31.5215 61.0454 31.8683 61.0445 32.2229C61.0434 32.6974 60.8535 33.1522 60.5165 33.4873C60.1795 33.8225 59.7228 34.0107 59.2468 34.0107ZM59.2468 30.8622C58.9768 30.8622 58.7128 30.942 58.4883 31.0915C58.2639 31.241 58.0889 31.4536 57.9856 31.7022C57.8822 31.9508 57.8552 32.2244 57.9079 32.4884C57.9605 32.7523 58.0906 32.9948 58.2815 33.1851C58.4724 33.3754 58.7156 33.505 58.9805 33.5575C59.2453 33.61 59.5197 33.583 59.7692 33.4801C60.0186 33.3771 60.2318 33.2027 60.3818 32.9789C60.5318 32.7551 60.6119 32.492 60.6119 32.2229C60.6119 31.862 60.4681 31.5159 60.2121 31.2607C59.9561 31.0056 59.6088 30.8622 59.2468 30.8622Z" fill="#1BA098"/>
<path d="M60.5657 37.0964H132.733C135.871 37.0964 137.538 39.2693 136.45 41.9489L120.22 81.979C119.136 84.6586 115.709 86.8316 112.571 86.8316H40.3995C37.2618 86.8316 35.5985 84.6586 36.6864 81.979L52.9125 41.9489C54.0005 39.2693 57.4238 37.0964 60.5657 37.0964Z" fill="white"/>
<path d="M112.571 87.0493H40.3995C38.7488 87.0493 37.3921 86.4464 36.678 85.3745C36.0479 84.4325 35.9597 83.1765 36.468 81.9204L52.6941 41.8903C53.8115 39.1395 57.3146 36.9038 60.5489 36.9038H132.733C134.388 36.9038 135.745 37.5067 136.454 38.5576C137.106 39.5163 137.177 40.7598 136.652 42.0536L120.422 82.0795C119.308 84.8093 115.784 87.0493 112.571 87.0493ZM60.5657 37.3141C57.512 37.3141 54.1685 39.4075 53.1142 42.0326L36.888 82.0586C36.4218 83.2141 36.468 84.3153 37.0434 85.1526C37.6735 86.0821 38.8958 86.618 40.4037 86.618H112.571C115.625 86.618 118.964 84.4995 120.022 81.8995L136.249 41.8693C136.719 40.7138 136.669 39.6168 136.097 38.7795C135.467 37.8458 134.241 37.3141 132.737 37.3141H60.5657Z" fill="#1BA098"/>
<path d="M108.165 12.6202H95.9835C95.9551 12.6208 95.9267 12.6157 95.9003 12.6052C95.8738 12.5947 95.8497 12.5791 95.8293 12.5592C95.809 12.5393 95.7928 12.5156 95.7818 12.4894C95.7708 12.4632 95.7651 12.4351 95.7651 12.4067V0.277515C95.7558 0.245114 95.7542 0.211007 95.7604 0.177879C95.7666 0.14475 95.7804 0.113505 95.8008 0.0866035C95.8211 0.059702 95.8475 0.0378783 95.8777 0.0228503C95.908 0.00782235 95.9413 0 95.9751 0C96.0089 0 96.0423 0.00782235 96.0725 0.0228503C96.1028 0.0378783 96.1292 0.059702 96.1495 0.0866035C96.1699 0.113505 96.1837 0.14475 96.1899 0.177879C96.196 0.211007 96.1944 0.245114 96.1852 0.277515V12.189H108.161C108.193 12.1797 108.227 12.1781 108.26 12.1843C108.294 12.1905 108.325 12.2042 108.352 12.2245C108.379 12.2448 108.401 12.2711 108.416 12.3012C108.431 12.3314 108.439 12.3646 108.439 12.3983C108.439 12.432 108.431 12.4653 108.416 12.4954C108.401 12.5256 108.379 12.5519 108.352 12.5722C108.325 12.5924 108.294 12.6062 108.26 12.6124C108.227 12.6185 108.193 12.6169 108.161 12.6077L108.165 12.6202Z" fill="#1BA098"/>
<path d="M124.387 50.3267H99.6673C99.4097 50.343 99.1523 50.2935 98.9193 50.1828C98.6862 50.0722 98.4854 49.9041 98.3358 49.6945C98.1904 49.4408 98.1098 49.1554 98.101 48.8634C98.0922 48.5714 98.1556 48.2817 98.2854 48.0198L99.1255 45.9975C99.397 45.3944 99.8267 44.8754 100.369 44.4952C100.912 44.115 101.547 43.8876 102.209 43.8371H126.932C127.189 43.8228 127.446 43.8732 127.679 43.9837C127.912 44.0942 128.113 44.2612 128.264 44.4694C128.409 44.723 128.49 45.0084 128.498 45.3005C128.507 45.5925 128.444 45.8822 128.314 46.1441L127.474 48.1705C127.202 48.7737 126.771 49.2925 126.228 49.6721C125.685 50.0516 125.048 50.2778 124.387 50.3267ZM102.217 44.2391C101.64 44.2857 101.087 44.486 100.615 44.8189C100.143 45.1518 99.769 45.6052 99.5329 46.1315L98.6928 48.1579C98.5873 48.3558 98.5321 48.5765 98.5321 48.8006C98.5321 49.0247 98.5873 49.2454 98.6928 49.4433C98.808 49.5878 98.9572 49.7017 99.1273 49.7748C99.2973 49.8478 99.4828 49.8778 99.6673 49.862H124.387C124.959 49.8197 125.51 49.6254 125.982 49.2993C126.454 48.9731 126.83 48.527 127.071 48.0072L127.911 45.985C128.017 45.7865 128.072 45.5651 128.072 45.3402C128.072 45.1154 128.017 44.894 127.911 44.6954C127.799 44.5468 127.652 44.4287 127.482 44.3518C127.313 44.275 127.126 44.242 126.941 44.2558L102.217 44.2391Z" fill="#1BA098"/>
</svg>
